<svg width="31" height="30" viewBox="0 0 31 30" fill="none" xmlns="http://www.w3.org/2000/svg">
<path id="history" d="M15.5 30C11.6667 30 8.32639 28.7292 5.47917 26.1875C2.63194 23.6458 1 20.4722 0.583333 16.6667H4C4.38889 19.5556 5.67361 21.9444 7.85417 23.8333C10.0347 25.7222 12.5833 26.6667 15.5 26.6667C18.75 26.6667 21.5069 25.5347 23.7708 23.2708C26.0347 21.0069 27.1667 18.25 27.1667 15C27.1667 11.75 26.0347 8.99306 23.7708 6.72917C21.5069 4.46528 18.75 3.33333 15.5 3.33333C13.5833 3.33333 11.7917 3.77778 10.125 4.66667C8.45833 5.55556 7.05556 6.77778 5.91667 8.33333H10.5V11.6667H0.5V1.66667H3.83333V5.58333C5.25 3.80556 6.97917 2.43056 9.02083 1.45833C11.0625 0.486111 13.2222 0 15.5 0C17.5833 0 19.5347 0.395833 21.3542 1.1875C23.1736 1.97917 24.7569 3.04861 26.1042 4.39583C27.4514 5.74306 28.5208 7.32639 29.3125 9.14583C30.1042 10.9653 30.5 12.9167 30.5 15C30.5 17.0833 30.1042 19.0347 29.3125 20.8542C28.5208 22.6736 27.4514 24.2569 26.1042 25.6042C24.7569 26.9514 23.1736 28.0208 21.3542 28.8125C19.5347 29.6042 17.5833 30 15.5 30ZM20.1667 22L13.8333 15.6667V6.66667H17.1667V14.3333L22.5 19.6667L20.1667 22Z" fill="#525252"/>
</svg>
