<svg width="31" height="30" viewBox="0 0 31 30" fill="none" xmlns="http://www.w3.org/2000/svg">
<g id="icon-copy">
<path id="Vector" d="M23 2.5H11.75C10.375 2.5 9.25 3.625 9.25 5V20C9.25 21.375 10.375 22.5 11.75 22.5H23C24.375 22.5 25.5 21.375 25.5 20V5C25.5 3.625 24.375 2.5 23 2.5ZM23 20H11.75V5H23V20ZM4.25 18.75V16.25H6.75V18.75H4.25ZM4.25 11.875H6.75V14.375H4.25V11.875ZM13 25H15.5V27.5H13V25ZM4.25 23.125V20.625H6.75V23.125H4.25ZM6.75 27.5C5.375 27.5 4.25 26.375 4.25 25H6.75V27.5ZM11.125 27.5H8.625V25H11.125V27.5ZM17.375 27.5V25H19.875C19.875 26.375 18.75 27.5 17.375 27.5ZM6.75 7.5V10H4.25C4.25 8.625 5.375 7.5 6.75 7.5Z" fill="#525252"/>
</g>
</svg>
