<svg width="48" height="48" viewBox="0 0 48 48" fill="none" xmlns="http://www.w3.org/2000/svg">
<g id="icon-settings">
<path id="Vector" d="M38.2799 25.88C38.3599 25.28 38.3999 24.66 38.3999 24C38.3999 23.36 38.3599 22.72 38.2599 22.12L42.3199 18.96C42.4949 18.8158 42.6144 18.6154 42.6582 18.3929C42.7019 18.1705 42.6672 17.9397 42.5599 17.74L38.7199 11.1C38.6069 10.8991 38.4264 10.7447 38.2104 10.6642C37.9944 10.5837 37.7569 10.5822 37.5399 10.66L32.7599 12.58C31.7599 11.82 30.6999 11.18 29.5199 10.7L28.7999 5.61999C28.7645 5.39105 28.6482 5.18241 28.472 5.03195C28.2959 4.88148 28.0716 4.79918 27.8399 4.79999H20.1599C19.6799 4.79999 19.2999 5.13999 19.2199 5.61999L18.4999 10.7C17.3199 11.18 16.2399 11.84 15.2599 12.58L10.4799 10.66C10.0399 10.5 9.53993 10.66 9.29993 11.1L5.47993 17.74C5.23993 18.16 5.31993 18.68 5.71993 18.96L9.77993 22.12C9.67993 22.72 9.59993 23.38 9.59993 24C9.59993 24.62 9.63993 25.28 9.73993 25.88L5.67993 29.04C5.50498 29.1842 5.38544 29.3846 5.34167 29.6071C5.29791 29.8295 5.33263 30.0603 5.43993 30.26L9.27993 36.9C9.51993 37.34 10.0199 37.48 10.4599 37.34L15.2399 35.42C16.2399 36.18 17.2999 36.82 18.4799 37.3L19.1999 42.38C19.2999 42.86 19.6799 43.2 20.1599 43.2H27.8399C28.3199 43.2 28.7199 42.86 28.7799 42.38L29.4999 37.3C30.6799 36.82 31.7599 36.18 32.7399 35.42L37.5199 37.34C37.9599 37.5 38.4599 37.34 38.6999 36.9L42.5399 30.26C42.7799 29.82 42.6799 29.32 42.2999 29.04L38.2799 25.88ZM23.9999 31.2C20.0399 31.2 16.7999 27.96 16.7999 24C16.7999 20.04 20.0399 16.8 23.9999 16.8C27.9599 16.8 31.1999 20.04 31.1999 24C31.1999 27.96 27.9599 31.2 23.9999 31.2Z" fill="#525252"/>
</g>
</svg>
